---
config:
  layout: elk
---
erDiagram
Network ||--o{ Node: "Consists of"
Network ||--o{ Span: "Consists of"
Network ||--o{ Phase: "Deployed in"
Node ||--|| Phase: "Belongs to"
Node ||--|| Organisation: "Supporting infrastructure owned by"
Node ||--|| Organisation: "Transmission medium owned by"
Node ||--o{ Organisation: "Active network infrastructure operated by"
Span ||--|| Phase: "Belongs to"
Span ||--|| Node: "Starts at"
Span ||--|| Node: "Ends at"
Span ||--|| Organisation: "Transmission medium owned by"
Span ||--o{ Organisation: "Active network infrastructure operated by"
Span ||--|| Organisation: "Installed by"
Span ||--|| Organisation: "Supporting infrastructure owned by"
Span ||--o{ Wayleave: "Grants rights to install, maintain or operate infrastructure for"
Phase ||--o{ Organisation: "Financed by"
Contract ||--o{ Document: ""
Contract ||--o{ Phase: "Agreement to develop"
Wayleave ||--|| Organisation: "Granted by"classDef spatial fill:#f3ffa6ff,stroke:#bbd034
classDef non-spatial fill:#cec7ffff,stroke:#110e27
class Node,Span spatial
class Network,Organisation,Phase,Contract,Wayleave,Document non-spatial
direction LR